<?xml version="1.0" encoding="UTF-8" standalone="no"?><!DOCTYPE svg PUBLIC "-//W3C//DTD SVG 1.1//EN" "http://www.w3.org/Graphics/SVG/1.1/DTD/svg11.dtd"><svg width="100%" height="100%" viewBox="0 0 512 512" version="1.1" xmlns="http://www.w3.org/2000/svg" xmlns:xlink="http://www.w3.org/1999/xlink" xml:space="preserve" xmlns:serif="http://www.serif.com/" style="fill-rule:evenodd;clip-rule:evenodd;stroke-linejoin:round;stroke-miterlimit:1.41421;"><g id="Layer5"><path d="M70.75,59.333l24,-24l75,-3.5l70,23l12,39l23.5,23l-21.5,22l-7.75,12l-2.25,35l-45.5,9.5l-58.5,-6l-55,-32l-20,-37.833l-3,-42.167l9,-18Z" style="fill:#fff;"/><path d="M124.75,224.833l30,0.5l8,21.5l-1.5,20.5l-12.5,11.5l-1,42l5,39l15.75,11.5l3.75,16l-14,17.5l-25,1.5l-27,0.5l-12,-18.5l5.5,-23.5l18,-8l-5.5,-87l-8.5,0l-15.5,-11l1,-23l13,-10l22.5,-1Z" style="fill:#fff;"/><path d="M304.25,127.833l14,8l9,13.5l31.5,-2l7,10l-1,13.5l-7.5,13l-22,-2.833l-32.5,3.333l-18.5,-10.833l-3.5,-15.667l7,-20.5l16.5,-9.5Z" style="fill:#fff;"/><path d="M344.25,61.833l2.5,-15.5l19,-12l11,5l-1,11.5l-10,8l35.5,-7l13,-3l5,12l-5.5,10l6.5,8l-4.5,10.5l1,11.5l-20,7l-22,-10l-17,0.5l-12,-5.5l-5,-16.5l3.5,-14.5Z" style="fill:#fff;"/><path d="M340.75,241.333l-6,-16.5l-1.5,-15.5l16.5,-8l18.5,9l5,14.5l-2,14l31.5,-14l20.5,0l-6.5,16.5l-15.5,14.667l-20.75,11.333l0,5l24.25,-13l10.5,0l5,18.167l-9,6.333l11.5,12l-2.5,11.5l-8,11l8,9.5l-4,15l-17.5,6.5l-45.5,0l-22.5,2l-27.5,-0.5l-15.5,-12.5l-7,-18l13,-11l-1,-11.5l-16.5,-9l-0.5,-11.333l1.5,-13.167l16.5,-3.5l-17,-7.5l-2,-12.5l8.5,-10l11.5,-2l17,2.5l18,8.5l11,1.5Z" style="fill:#fff;"/><path d="M323.25,391.833l-6.5,-15.5l16.5,-10.5l37.5,-0.5l-5,19l0,13l31,-14l18,-2l16,13.5l-7.5,22l-14,19l-20.5,7.5l-35.5,1l-37,2l-28,-6l-13.5,-15.5l6,-29l12,-15.5l15.5,1.5l15,10Z" style="fill:#fff;"/></g></svg>